<svg width="29" height="29" viewBox="0 0 29 29" fill="none" xmlns="http://www.w3.org/2000/svg">
<path d="M7.385 5.896C7.26755 5.89591 7.15387 5.85447 7.06391 5.77896C6.97394 5.70344 6.91344 5.59866 6.893 5.483L6.734 4.587C6.7108 4.45638 6.74043 4.32189 6.81638 4.21312C6.89233 4.10435 7.00838 4.0302 7.139 4.007C7.26962 3.98379 7.40411 4.01342 7.51288 4.08938C7.62165 4.16533 7.6958 4.28138 7.719 4.412L7.878 5.308C7.89088 5.38004 7.88779 5.45402 7.86895 5.52474C7.85011 5.59545 7.81597 5.66116 7.76895 5.71724C7.72194 5.77332 7.66318 5.81839 7.59684 5.84928C7.5305 5.88017 7.45818 5.89612 7.385 5.896ZM11.484 28.995C11.3665 28.9949 11.2529 28.9535 11.1629 28.878C11.0729 28.8024 11.0124 28.6977 10.992 28.582L7.957 11.479C7.9338 11.3484 7.96343 11.2139 8.03938 11.1051C8.11533 10.9963 8.23138 10.9222 8.362 10.899C8.49262 10.8758 8.62711 10.9054 8.73588 10.9814C8.84465 11.0573 8.9188 11.1734 8.942 11.304L11.977 28.407C11.9899 28.479 11.9868 28.553 11.9679 28.6237C11.9491 28.6945 11.915 28.7602 11.868 28.8162C11.8209 28.8723 11.7622 28.9174 11.6958 28.9483C11.6295 28.9792 11.5572 28.9951 11.484 28.995Z" fill="black"/>
<path d="M27.5 29H0.5C0.367392 29 0.240215 28.9473 0.146447 28.8536C0.0526784 28.7598 0 28.6326 0 28.5C0 28.3674 0.0526784 28.2402 0.146447 28.1464C0.240215 28.0527 0.367392 28 0.5 28H27.5C27.6326 28 27.7598 28.0527 27.8536 28.1464C27.9473 28.2402 28 28.3674 28 28.5C28 28.6326 27.9473 28.7598 27.8536 28.8536C27.7598 28.9473 27.6326 29 27.5 29ZM23.5 24H5.5C5.41764 24 5.33655 23.9797 5.26397 23.9408C5.19138 23.9019 5.12955 23.8456 5.084 23.777L1.084 17.777C1.04531 17.7224 1.01796 17.6606 1.00357 17.5953C0.989186 17.53 0.988056 17.4624 1.00025 17.3967C1.01244 17.3309 1.03771 17.2682 1.07455 17.2124C1.1114 17.1566 1.15907 17.1087 1.21475 17.0716C1.27043 17.0345 1.33299 17.009 1.39871 16.9965C1.46444 16.9841 1.53199 16.9849 1.59738 16.9991C1.66277 17.0132 1.72466 17.0403 1.77939 17.0787C1.83412 17.1172 1.88057 17.1663 1.916 17.223L5.768 23H23.5C23.6326 23 23.7598 23.0527 23.8536 23.1464C23.9473 23.2402 24 23.3674 24 23.5C24 23.6326 23.9473 23.7598 23.8536 23.8536C23.7598 23.9473 23.6326 24 23.5 24Z" fill="black"/>
<path d="M3.5 29C3.41827 28.9999 3.33781 28.9798 3.26563 28.9415C3.19345 28.9032 3.13174 28.8478 3.08588 28.7801C3.04003 28.7125 3.01142 28.6346 3.00255 28.5534C2.99368 28.4721 3.00482 28.3899 3.035 28.314L5.035 23.314C5.05936 23.253 5.09549 23.1974 5.14134 23.1504C5.18719 23.1033 5.24186 23.0658 5.30222 23.0399C5.36257 23.014 5.42744 23.0002 5.49312 22.9994C5.5588 22.9985 5.624 23.0106 5.685 23.035C5.746 23.0594 5.8016 23.0955 5.84863 23.1413C5.89567 23.1872 5.93321 23.2419 5.95912 23.3022C5.98503 23.3626 5.99879 23.4274 5.99963 23.4931C6.00047 23.5588 5.98836 23.624 5.964 23.685L3.964 28.685C3.92701 28.7779 3.86303 28.8575 3.78032 28.9137C3.69761 28.9698 3.59997 28.9999 3.5 29ZM25.5 29C25.4001 29 25.3026 28.9701 25.2199 28.9141C25.1372 28.8581 25.0731 28.7787 25.036 28.686L23.036 23.686C23.0116 23.625 22.9995 23.5598 23.0004 23.4941C23.0012 23.4284 23.015 23.3636 23.0409 23.3032C23.0668 23.2429 23.1043 23.1882 23.1514 23.1423C23.1984 23.0965 23.254 23.0604 23.315 23.036C23.376 23.0116 23.4412 22.9995 23.5069 23.0004C23.5726 23.0012 23.6374 23.015 23.6978 23.0409C23.7581 23.0668 23.8128 23.1043 23.8587 23.1514C23.9045 23.1984 23.9406 23.254 23.965 23.315L25.965 28.315C25.9952 28.3909 26.0064 28.473 25.9975 28.5542C25.9887 28.6354 25.96 28.7132 25.9142 28.7808C25.8683 28.8484 25.8065 28.9037 25.7343 28.9419C25.6621 28.9801 25.5817 29.0001 25.5 29ZM0.571998 13.29C0.454542 13.2899 0.340865 13.2485 0.250903 13.173C0.160941 13.0974 0.100436 12.9927 0.0799984 12.877C-0.229002 11.14 0.372998 9.359 1.773 7.861C3.136 6.403 5.104 5.383 7.314 4.991C11.928 4.17 16.192 6.377 16.819 9.906C16.8308 9.97071 16.8297 10.0371 16.8156 10.1014C16.8016 10.1656 16.775 10.2265 16.7374 10.2804C16.6997 10.3343 16.6518 10.3803 16.5963 10.4156C16.5408 10.4508 16.4788 10.4748 16.414 10.486L0.659998 13.282C0.630937 13.2871 0.601503 13.2898 0.571998 13.29ZM9.252 5.819C8.677 5.819 8.086 5.87 7.488 5.976C5.49 6.331 3.72 7.243 2.503 8.544C1.461 9.659 0.939998 10.942 1.007 12.205L15.716 9.595C15.016 7.318 12.373 5.819 9.252 5.819Z" fill="black"/>
<path d="M3.526 12.765C3.40854 12.7649 3.29487 12.7235 3.20491 12.648C3.11494 12.5724 3.05444 12.4677 3.034 12.352C2.733 10.659 3.003 8.966 3.793 7.583C4.6 6.172 5.85 5.251 7.313 4.992C10.302 4.464 13.238 6.903 13.864 10.431C13.8758 10.4957 13.8747 10.5621 13.8606 10.6264C13.8466 10.6906 13.82 10.7515 13.7824 10.8054C13.7447 10.8593 13.6968 10.9053 13.6413 10.9406C13.5858 10.9758 13.5238 10.9998 13.459 11.011L3.613 12.758C3.58425 12.7628 3.55515 12.7652 3.526 12.765ZM8.138 5.919C7.923 5.919 7.706 5.938 7.489 5.976C6.322 6.183 5.318 6.93 4.661 8.08C4.063 9.126 3.816 10.389 3.949 11.682L12.775 10.116C12.146 7.652 10.212 5.919 8.138 5.919Z" fill="black"/>
<path d="M6.479 12.241C6.36154 12.2409 6.24786 12.1995 6.1579 12.124C6.06794 12.0484 6.00743 11.9437 5.987 11.828C5.697 10.199 5.638 8.622 5.82 7.388C6.087 5.578 6.779 5.086 7.313 4.991C8.914 4.699 10.346 7.774 10.91 10.954C10.9218 11.0187 10.9206 11.0851 10.9066 11.1494C10.8926 11.2136 10.866 11.2745 10.8284 11.3284C10.7907 11.3823 10.7428 11.4283 10.6873 11.4636C10.6317 11.4988 10.5698 11.5228 10.505 11.534L6.567 12.233C6.53801 12.2386 6.50853 12.2413 6.479 12.241ZM7.526 5.973C7.51327 5.97296 7.50056 5.97397 7.488 5.976C7.329 6.004 6.982 6.367 6.81 7.534C6.662 8.542 6.691 9.814 6.892 11.16L9.832 10.639C9.197 7.544 8.027 5.973 7.526 5.973ZM23 8C21.622 8 20.5 6.878 20.5 5.5C20.5 4.122 21.622 3 23 3C24.378 3 25.5 4.122 25.5 5.5C25.5 6.878 24.378 8 23 8ZM23 4C22.173 4 21.5 4.673 21.5 5.5C21.5 6.327 22.173 7 23 7C23.827 7 24.5 6.327 24.5 5.5C24.5 4.673 23.827 4 23 4ZM23 2C22.8674 2 22.7402 1.94732 22.6464 1.85355C22.5527 1.75979 22.5 1.63261 22.5 1.5V0.5C22.5 0.367392 22.5527 0.240215 22.6464 0.146447C22.7402 0.0526784 22.8674 0 23 0C23.1326 0 23.2598 0.0526784 23.3536 0.146447C23.4473 0.240215 23.5 0.367392 23.5 0.5V1.5C23.5 1.63261 23.4473 1.75979 23.3536 1.85355C23.2598 1.94732 23.1326 2 23 2ZM23 11C22.8674 11 22.7402 10.9473 22.6464 10.8536C22.5527 10.7598 22.5 10.6326 22.5 10.5V9.5C22.5 9.36739 22.5527 9.24021 22.6464 9.14645C22.7402 9.05268 22.8674 9 23 9C23.1326 9 23.2598 9.05268 23.3536 9.14645C23.4473 9.24021 23.5 9.36739 23.5 9.5V10.5C23.5 10.6326 23.4473 10.7598 23.3536 10.8536C23.2598 10.9473 23.1326 11 23 11ZM28 6H27C26.8674 6 26.7402 5.94732 26.6464 5.85355C26.5527 5.75979 26.5 5.63261 26.5 5.5C26.5 5.36739 26.5527 5.24021 26.6464 5.14645C26.7402 5.05268 26.8674 5 27 5H28C28.1326 5 28.2598 5.05268 28.3536 5.14645C28.4473 5.24021 28.5 5.36739 28.5 5.5C28.5 5.63261 28.4473 5.75979 28.3536 5.85355C28.2598 5.94732 28.1326 6 28 6ZM19 6H18C17.8674 6 17.7402 5.94732 17.6464 5.85355C17.5527 5.75979 17.5 5.63261 17.5 5.5C17.5 5.36739 17.5527 5.24021 17.6464 5.14645C17.7402 5.05268 17.8674 5 18 5H19C19.1326 5 19.2598 5.05268 19.3536 5.14645C19.4473 5.24021 19.5 5.36739 19.5 5.5C19.5 5.63261 19.4473 5.75979 19.3536 5.85355C19.2598 5.94732 19.1326 6 19 6ZM25.829 3.171C25.7302 3.17098 25.6336 3.14168 25.5514 3.0868C25.4692 3.03192 25.4052 2.95392 25.3673 2.86265C25.3294 2.77139 25.3194 2.67094 25.3386 2.574C25.3578 2.47707 25.4052 2.38798 25.475 2.318L26.182 1.611C26.2763 1.51992 26.4026 1.46952 26.5337 1.47066C26.6648 1.4718 26.7902 1.52439 26.8829 1.61709C26.9756 1.70979 27.0282 1.8352 27.0293 1.9663C27.0305 2.0974 26.9801 2.2237 26.889 2.318L26.182 3.025C26.1357 3.07146 26.0807 3.10829 26.0201 3.13335C25.9595 3.15841 25.8946 3.1712 25.829 3.171ZM19.464 9.536C19.3652 9.53598 19.2686 9.50668 19.1864 9.4518C19.1042 9.39692 19.0402 9.31892 19.0023 9.22765C18.9644 9.13639 18.9544 9.03594 18.9736 8.939C18.9928 8.84207 19.0402 8.75298 19.11 8.683L19.817 7.976C19.9113 7.88492 20.0376 7.83452 20.1687 7.83566C20.2998 7.8368 20.4252 7.88939 20.5179 7.98209C20.6106 8.07479 20.6632 8.2002 20.6643 8.3313C20.6655 8.4624 20.6151 8.5887 20.524 8.683L19.817 9.39C19.7707 9.43637 19.7156 9.47314 19.6551 9.49819C19.5945 9.52325 19.5296 9.5361 19.464 9.536ZM26.536 9.536C26.4033 9.53602 26.2761 9.48353 26.182 9.39L25.475 8.683C25.3839 8.5887 25.3335 8.4624 25.3347 8.3313C25.3358 8.2002 25.3884 8.07479 25.4811 7.98209C25.5738 7.88939 25.6992 7.8368 25.8303 7.83566C25.9614 7.83452 26.0877 7.88492 26.182 7.976L26.889 8.683C26.9587 8.75292 27.0061 8.84191 27.0253 8.93876C27.0445 9.0356 27.0346 9.13597 26.9969 9.22719C26.9591 9.31842 26.8952 9.39643 26.8132 9.45138C26.7312 9.50634 26.6347 9.53578 26.536 9.536ZM20.171 3.171C20.0383 3.17102 19.9111 3.11853 19.817 3.025L19.11 2.318C19.0189 2.2237 18.9685 2.0974 18.9697 1.9663C18.9708 1.8352 19.0234 1.70979 19.1161 1.61709C19.2088 1.52439 19.3342 1.4718 19.4653 1.47066C19.5964 1.46952 19.7227 1.51992 19.817 1.611L20.524 2.318C20.5937 2.38792 20.6411 2.47691 20.6603 2.57376C20.6795 2.6706 20.6696 2.77097 20.6319 2.86219C20.5941 2.95342 20.5302 3.03143 20.4482 3.08638C20.3662 3.14134 20.2697 3.17078 20.171 3.171Z" fill="black"/>
</svg>
