<svg width="28" height="28" viewBox="0 0 28 28" fill="none" xmlns="http://www.w3.org/2000/svg">
<path d="M16.8077 0.328125V6.61445L27.6855 8.015C27.86 8.02211 28 8.16594 28 8.34258V27.5669C28 27.7484 27.8529 27.895 27.6719 27.895H0.328125C0.147109 27.895 0 27.7484 0 27.5669V0.328125C0 0.146563 0.147109 0 0.328125 0H16.4795C16.6605 0 16.8077 0.146563 16.8077 0.328125ZM7.22531 1.95563H9.58234C9.76336 1.95563 9.91047 2.10273 9.91047 2.28375V6.38695C9.91047 6.56852 9.76336 6.71508 9.58234 6.71508H7.22531C7.0443 6.71508 6.89719 6.56852 6.89719 6.38695V2.28375C6.89719 2.10273 7.0443 1.95563 7.22531 1.95563ZM9.25422 2.61188H7.55344V6.05883H9.25422V2.61188ZM23.782 27.2388V23.5091C23.782 22.0117 21.9538 21.2215 20.8709 22.3043C20.5614 22.6138 20.3695 23.0404 20.3695 23.5091V27.2388H23.782ZM19.7132 27.2388V23.5091C19.7132 21.4288 22.2491 20.3448 23.7442 21.84C24.1724 22.2682 24.4382 22.8588 24.4382 23.5091V27.2388H27.3438V8.63023L16.8077 7.27344V27.2388H19.7132ZM23.368 15.6926H25.725C25.906 15.6926 26.0531 15.8391 26.0531 16.0207V19.8893C26.0531 20.0703 25.906 20.2174 25.725 20.2174H23.368C23.1864 20.2174 23.0398 20.0703 23.0398 19.8893V16.0207C23.0398 15.8391 23.1864 15.6926 23.368 15.6926ZM25.3969 16.3488H23.6961V19.5612H25.3969V16.3488ZM18.4264 15.6926H20.7834C20.965 15.6926 21.1116 15.8391 21.1116 16.0207V19.8893C21.1116 20.0703 20.965 20.2174 20.7834 20.2174H18.4264C18.2454 20.2174 18.0983 20.0703 18.0983 19.8893V16.0207C18.0983 15.8391 18.2454 15.6926 18.4264 15.6926ZM20.4553 16.3488H18.7545V19.5612H20.4553V16.3488ZM23.368 9.97172H25.725C25.906 9.97172 26.0531 10.1183 26.0531 10.2998V14.1684C26.0531 14.3495 25.906 14.4966 25.725 14.4966H23.368C23.1864 14.4966 23.0398 14.3495 23.0398 14.1684V10.2998C23.0398 10.1183 23.1864 9.97172 23.368 9.97172ZM25.3969 10.628H23.6961V13.8403H25.3969V10.628ZM18.4264 9.97172H20.7834C20.965 9.97172 21.1116 10.1183 21.1116 10.2998V14.1684C21.1116 14.3495 20.965 14.4966 20.7834 14.4966H18.4264C18.2454 14.4966 18.0983 14.3495 18.0983 14.1684V10.2998C18.0983 10.1183 18.2454 9.97172 18.4264 9.97172ZM20.4553 10.628H18.7545V13.8403H20.4553V10.628ZM8.73195 20.7769V27.2388H12.7854V20.7769H8.73195ZM8.0757 27.2388V20.7769H4.02227V27.2388H8.0757ZM3.36602 27.2388V20.4488C3.36602 20.2677 3.51258 20.1206 3.69414 20.1206H13.1135C13.2951 20.1206 13.4416 20.2677 13.4416 20.4488V27.2388H16.1514V0.65625H0.65625V27.2388H3.36602ZM12.1663 14.0738H14.5239C14.7049 14.0738 14.852 14.2204 14.852 14.402V18.5052C14.852 18.6862 14.7049 18.8333 14.5239 18.8333H12.1663C11.9853 18.8333 11.8382 18.6862 11.8382 18.5052V14.402C11.8382 14.2204 11.9853 14.0738 12.1663 14.0738ZM14.1958 14.7301H12.4945V18.177H14.1958V14.7301ZM7.22531 14.0738H9.58234C9.76336 14.0738 9.91047 14.2204 9.91047 14.402V18.5052C9.91047 18.6862 9.76336 18.8333 9.58234 18.8333H7.22531C7.0443 18.8333 6.89719 18.6862 6.89719 18.5052V14.402C6.89719 14.2204 7.0443 14.0738 7.22531 14.0738ZM9.25422 14.7301H7.55344V18.177H9.25422V14.7301ZM2.28375 14.0738H4.64133C4.82234 14.0738 4.96945 14.2204 4.96945 14.402V18.5052C4.96945 18.6862 4.82234 18.8333 4.64133 18.8333H2.28375C2.10273 18.8333 1.95562 18.6862 1.95562 18.5052V14.402C1.95562 14.2204 2.10273 14.0738 2.28375 14.0738ZM4.3132 14.7301H2.61187V18.177H4.3132V14.7301ZM12.1663 8.01445H14.5239C14.7049 8.01445 14.852 8.16156 14.852 8.34258V12.4463C14.852 12.6273 14.7049 12.7745 14.5239 12.7745H12.1663C11.9853 12.7745 11.8382 12.6273 11.8382 12.4463V8.34258C11.8382 8.16156 11.9853 8.01445 12.1663 8.01445ZM14.1958 8.6707H12.4945V12.1182H14.1958V8.6707ZM7.22531 8.01445H9.58234C9.76336 8.01445 9.91047 8.16156 9.91047 8.34258V12.4463C9.91047 12.6273 9.76336 12.7745 9.58234 12.7745H7.22531C7.0443 12.7745 6.89719 12.6273 6.89719 12.4463V8.34258C6.89719 8.16156 7.0443 8.01445 7.22531 8.01445ZM9.25422 8.6707H7.55344V12.1182H9.25422V8.6707ZM2.28375 8.01445H4.64133C4.82234 8.01445 4.96945 8.16156 4.96945 8.34258V12.4463C4.96945 12.6273 4.82234 12.7745 4.64133 12.7745H2.28375C2.10273 12.7745 1.95562 12.6273 1.95562 12.4463V8.34258C1.95562 8.16156 2.10273 8.01445 2.28375 8.01445ZM4.3132 8.6707H2.61187V12.1182H4.3132V8.6707ZM12.1663 1.95563H14.5239C14.7049 1.95563 14.852 2.10273 14.852 2.28375V6.38695C14.852 6.56852 14.7049 6.71508 14.5239 6.71508H12.1663C11.9853 6.71508 11.8382 6.56852 11.8382 6.38695V2.28375C11.8382 2.10273 11.9853 1.95563 12.1663 1.95563ZM14.1958 2.61188H12.4945V6.05883H14.1958V2.61188ZM2.28375 1.95563H4.64133C4.82234 1.95563 4.96945 2.10273 4.96945 2.28375V6.38695C4.96945 6.56852 4.82234 6.71508 4.64133 6.71508H2.28375C2.10273 6.71508 1.95562 6.56852 1.95562 6.38695V2.28375C1.95562 2.10273 2.10273 1.95563 2.28375 1.95563ZM4.3132 2.61188H2.61187V6.05883H4.3132V2.61188Z" fill="black"/>
</svg>
