<svg width="28" height="26" viewBox="0 0 28 26" fill="none" xmlns="http://www.w3.org/2000/svg">
<path d="M14.361 17.2833C14.1656 17.2833 13.9728 17.2941 13.7783 17.3003C12.1468 15.2658 9.63627 11.2668 9.87294 6.1781C12.3579 8.31075 11.8375 11.5344 11.8097 11.6944C11.7946 11.7806 11.8051 11.8694 11.8399 11.9498C11.8747 12.0301 11.9322 12.0985 12.0055 12.1466C12.0787 12.1946 12.1644 12.2201 12.2519 12.2199C12.3395 12.2198 12.4251 12.194 12.4982 12.1458C12.5816 12.0906 14.5461 10.7751 14.9657 8.65857C15.0728 8.06231 15.0565 7.4504 14.9177 6.86069C14.7789 6.27098 14.5207 5.71602 14.1589 5.23011C13.7964 4.67477 13.2952 4.22376 12.7048 3.92175C13.9512 4.04878 15.1371 4.52254 16.1279 5.28928C16.2084 5.35642 16.3099 5.39322 16.4148 5.39326C16.485 5.39345 16.5543 5.37685 16.6169 5.34486C16.6949 5.3054 16.7597 5.24398 16.8033 5.16816C16.8469 5.09234 16.8673 5.00544 16.8621 4.91815C16.8563 4.81864 16.6945 2.45964 15.0692 1.04101C14.6059 0.650517 14.0674 0.35938 13.487 0.185664C12.9065 0.011949 12.2966 -0.0406385 11.695 0.0311644C10.9796 0.0656356 10.2899 0.308077 9.71024 0.728769C9.13064 1.14946 8.68637 1.73012 8.4319 2.39958C8.1772 1.73019 7.73281 1.1496 7.15316 0.728933C6.57351 0.308265 5.88376 0.0657759 5.16838 0.0311644C4.56669 -0.0401322 3.95677 0.0128254 3.37638 0.186759C2.79598 0.360693 2.25746 0.651901 1.79415 1.04236C0.168445 2.46099 0.00708471 4.81999 0.000809581 4.91949C-0.00445057 5.0069 0.0160087 5.09394 0.0596604 5.16985C0.103312 5.24576 0.168244 5.30723 0.246436 5.34665C0.324673 5.38617 0.412781 5.40188 0.499856 5.39184C0.586931 5.38181 0.669152 5.34646 0.736345 5.29017C1.72302 4.5428 2.894 4.07714 4.12447 3.94281C3.54902 4.24428 3.06021 4.68787 2.70449 5.23146C2.3428 5.71742 2.08459 6.27239 1.94582 6.86208C1.80705 7.45177 1.79067 8.06365 1.89769 8.65992C2.31768 10.7764 4.28224 12.092 4.36561 12.1471C4.43868 12.1952 4.52423 12.2209 4.61171 12.2209C4.6992 12.221 4.78479 12.1955 4.85793 12.1475C4.93108 12.0995 4.98859 12.0312 5.02336 11.9509C5.05814 11.8706 5.06866 11.7819 5.05364 11.6957C5.02405 11.5254 4.43688 7.88942 7.50138 5.78681C6.65469 8.05437 5.38532 13.1247 8.17372 18.4617C5.72838 19.3863 3.64515 21.0728 2.23162 23.272C1.80039 22.9378 1.26792 22.761 0.72245 22.7709V23.6673C0.99158 23.6725 1.2562 23.7374 1.4972 23.8573C1.73819 23.9772 1.94954 24.1492 2.11598 24.3607C2.36551 24.6525 2.67462 24.8875 3.02253 25.0498C3.37044 25.2122 3.74908 25.2982 4.13298 25.302C4.51689 25.2982 4.89553 25.2122 5.24344 25.0498C5.59134 24.8875 5.90046 24.6525 6.14999 24.3607C6.313 24.1455 6.52365 23.971 6.76542 23.8508C7.0072 23.7306 7.27352 23.6681 7.54352 23.6681C7.81351 23.6681 8.07984 23.7306 8.32161 23.8508C8.56339 23.971 8.77404 24.1455 8.93705 24.3607C9.18326 24.6561 9.49137 24.8936 9.83957 25.0567C10.1878 25.2197 10.5676 25.3042 10.952 25.3042C11.3365 25.3042 11.7163 25.2197 12.0645 25.0567C12.4127 24.8936 12.7208 24.6561 12.967 24.3607C13.13 24.1451 13.3408 23.9702 13.5827 23.8497C13.8247 23.7293 14.0914 23.6666 14.3617 23.6666C14.632 23.6666 14.8986 23.7293 15.1406 23.8497C15.3826 23.9702 15.5934 24.1451 15.7563 24.3607C16.0026 24.6561 16.3107 24.8936 16.659 25.0567C17.0072 25.2197 17.387 25.3042 17.7715 25.3042C18.1561 25.3042 18.5359 25.2197 18.8841 25.0567C19.2323 24.8936 19.5405 24.6561 19.7867 24.3607C19.9497 24.1449 20.1605 23.9698 20.4026 23.8493C20.6447 23.7287 20.9114 23.666 21.1818 23.666C21.4523 23.666 21.719 23.7287 21.9611 23.8493C22.2032 23.9698 22.414 24.1449 22.5769 24.3607C22.8234 24.6563 23.1318 24.8942 23.4804 25.0573C23.8289 25.2205 24.2091 25.3051 24.5939 25.3051C24.9788 25.3051 25.359 25.2205 25.7075 25.0573C26.0561 24.8942 26.3645 24.6563 26.611 24.3607C26.7771 24.1499 26.9877 23.9784 27.2279 23.8586C27.468 23.7387 27.7317 23.6734 28 23.6673V22.7709C27.4545 22.7611 26.9219 22.9377 26.4904 23.2716C24.2681 19.6163 19.5927 17.2833 14.361 17.2833ZM13.4197 5.73481C13.712 6.1229 13.9221 6.56651 14.0372 7.03855C14.1523 7.51058 14.1699 8.00112 14.0889 8.48018C13.8777 9.35456 13.4149 10.1479 12.7577 10.7621C12.7808 9.55915 12.4858 8.37144 11.9024 7.31918C11.319 6.26692 10.468 5.38745 9.43547 4.76979C10.4498 4.37132 12.2481 4.01139 13.4184 5.73481H13.4197ZM11.7622 0.926267C12.2444 0.866677 12.7336 0.905804 13.2002 1.04127C13.6668 1.17673 14.1009 1.4057 14.4762 1.71424C15.1289 2.33307 15.5863 3.12944 15.7917 4.00512C14.6902 3.37839 13.4485 3.03925 12.1813 3.01902C11.0423 3.02232 9.92443 3.3263 8.94063 3.90023C9.10154 2.82046 9.68468 1.08225 11.7622 0.926267ZM2.38357 1.71783C3.03346 1.169 3.86421 0.881427 4.71433 0.911028C4.84073 0.911028 4.96982 0.916406 5.1016 0.925819C7.17911 1.0818 7.76225 2.82001 7.9254 3.89934C6.87496 3.31171 5.68788 3.01209 4.48439 3.03082C3.28089 3.04955 2.10371 3.38597 1.07206 4.00601C1.27677 3.13172 1.73264 2.33637 2.38357 1.71783ZM4.10968 10.7621C3.45263 10.1478 2.98998 9.35451 2.7789 8.48018C2.69789 8.00112 2.71545 7.51056 2.83051 7.03852C2.94557 6.56647 3.15572 6.12286 3.4481 5.73481C3.69957 5.33184 4.05105 5.00079 4.46835 4.77388C4.88565 4.54697 5.35457 4.43191 5.82951 4.43989C6.3795 4.45063 6.92283 4.56245 7.43236 4.76979C6.39979 5.38743 5.54871 6.26688 4.96524 7.31914C4.38177 8.3714 4.08663 9.55911 4.10968 10.7621ZM8.50451 17.0699H9.43995V16.1735H8.15848C6.42834 11.1861 8.07377 6.67787 8.64749 5.3601C8.77509 5.42584 8.89805 5.49411 9.01638 5.56493C8.83506 7.78156 9.12358 10.0115 9.86308 12.109H8.94556V13.0054H10.2006C10.844 14.5603 11.6831 16.0268 12.6976 17.3694C11.4468 17.4873 10.2136 17.7483 9.02221 18.147C8.83067 17.7875 8.6581 17.4285 8.50451 17.0699ZM23.1928 23.7144C22.9465 23.4191 22.6382 23.1815 22.2899 23.0184C21.9416 22.8554 21.5617 22.7709 21.1771 22.7709C20.7926 22.7709 20.4127 22.8554 20.0644 23.0184C19.716 23.1815 19.4078 23.4191 19.1615 23.7144C18.9985 23.93 18.7878 24.1048 18.5458 24.2252C18.3039 24.3456 18.0373 24.4083 17.7671 24.4083C17.4968 24.4083 17.2302 24.3456 16.9883 24.2252C16.7463 24.1048 16.5356 23.93 16.3726 23.7144C16.1263 23.4191 15.8181 23.1815 15.4699 23.0185C15.1216 22.8554 14.7417 22.7709 14.3572 22.7709C13.9726 22.7709 13.5928 22.8554 13.2445 23.0185C12.8962 23.1815 12.588 23.4191 12.3418 23.7144C12.1788 23.9298 11.9681 24.1045 11.7262 24.2248C11.4843 24.3451 11.2179 24.4077 10.9478 24.4077C10.6777 24.4077 10.4112 24.3451 10.1693 24.2248C9.92749 24.1045 9.71679 23.9298 9.5538 23.7144C9.30763 23.4191 8.99956 23.1815 8.6514 23.0185C8.30323 22.8555 7.92348 22.7709 7.53904 22.7709C7.15459 22.7709 6.77484 22.8555 6.42667 23.0185C6.07851 23.1815 5.77044 23.4191 5.52427 23.7144C5.35788 23.926 5.14653 24.098 4.90553 24.2179C4.66453 24.3378 4.39989 24.4027 4.13074 24.4078C3.90257 24.4105 3.67638 24.3652 3.46687 24.2748C3.25736 24.1844 3.06923 24.0508 2.91471 23.8829C4.93755 20.4083 9.36913 18.1811 14.361 18.1811C19.3529 18.1811 23.7867 20.4065 25.8077 23.8829C25.6529 24.0514 25.4643 24.1854 25.2542 24.2762C25.0442 24.367 24.8174 24.4126 24.5886 24.4101C24.3189 24.4046 24.0539 24.3394 23.8125 24.2191C23.5711 24.0988 23.3595 23.9264 23.1928 23.7144Z" fill="black"/>
</svg>
