<svg width="42" height="33" viewBox="0 0 42 33" fill="none" xmlns="http://www.w3.org/2000/svg">
<g filter="url(#filter0_d_0_22)">
<path fill-rule="evenodd" clip-rule="evenodd" d="M33.75 14.875C31.625 14.875 31.625 13.8125 29.5 13.8125C29.0697 13.8125 28.729 13.8575 28.4375 13.9269V4.25C28.4375 2.48979 29.8648 1.0625 31.625 1.0625C33.3852 1.0625 34.8125 2.48979 34.8125 4.25C34.8125 4.54325 35.0505 4.78125 35.3438 4.78125C35.637 4.78125 35.875 4.54325 35.875 4.25C35.875 1.90294 33.9721 0 31.625 0C29.2779 0 27.375 1.90294 27.375 4.25V6.375H16.75V4.25C16.75 2.48979 18.1773 1.0625 19.9375 1.0625C21.6977 1.0625 23.125 2.48979 23.125 4.25C23.125 4.54325 23.363 4.78125 23.6562 4.78125C23.9495 4.78125 24.1875 4.54325 24.1875 4.25C24.1875 1.90294 22.2846 0 19.9375 0C17.5904 0 15.6875 1.90294 15.6875 4.25V6.375V7.4375V10.625V11.6875V14.7606C14.5404 14.4868 14.1947 13.8125 12.5 13.8125C10.375 13.8125 10.375 14.875 8.25 14.875C6.125 14.875 6.125 13.8125 4 13.8125V14.875C6.125 14.875 6.125 15.9375 8.25 15.9375C10.375 15.9375 10.375 14.875 12.5 14.875C14.625 14.875 14.625 15.9375 16.75 15.9375C18.875 15.9375 18.875 14.875 21 14.875C23.125 14.875 23.125 15.9375 25.25 15.9375C27.375 15.9375 27.375 14.875 29.5 14.875C31.625 14.875 31.625 15.9375 33.75 15.9375C35.875 15.9375 35.875 14.875 38 14.875V13.8125C35.875 13.8125 35.875 14.875 33.75 14.875ZM16.75 7.4375H27.375V10.625H16.75V7.4375ZM21 13.8125C18.875 13.8125 18.875 14.875 16.75 14.875V11.6875H27.375V14.3438C26.8438 14.6094 26.3125 14.875 25.25 14.875C23.125 14.875 23.125 13.8125 21 13.8125ZM4 22.3125C6.125 22.3125 6.125 23.375 8.25 23.375C10.375 23.375 10.375 22.3125 12.5 22.3125C14.625 22.3125 14.625 23.375 16.75 23.375C18.875 23.375 18.875 22.3125 21 22.3125C23.125 22.3125 23.125 23.375 25.25 23.375C27.375 23.375 27.375 22.3125 29.5 22.3125C31.625 22.3125 31.625 23.375 33.75 23.375C35.875 23.375 35.875 22.3125 38 22.3125V23.375C35.875 23.375 35.875 24.4375 33.75 24.4375C31.625 24.4375 31.625 23.375 29.5 23.375C27.375 23.375 27.375 24.4375 25.25 24.4375C23.125 24.4375 23.125 23.375 21 23.375C18.875 23.375 18.875 24.4375 16.75 24.4375C14.625 24.4375 14.625 23.375 12.5 23.375C10.375 23.375 10.375 24.4375 8.25 24.4375C6.125 24.4375 6.125 23.375 4 23.375V22.3125ZM4 18.0625C6.125 18.0625 6.125 19.125 8.25 19.125C10.375 19.125 10.375 18.0625 12.5 18.0625C14.625 18.0625 14.625 19.125 16.75 19.125C18.875 19.125 18.875 18.0625 21 18.0625C23.125 18.0625 23.125 19.125 25.25 19.125C27.375 19.125 27.375 18.0625 29.5 18.0625C31.625 18.0625 31.625 19.125 33.75 19.125C35.875 19.125 35.875 18.0625 38 18.0625V19.125C35.875 19.125 35.875 20.1875 33.75 20.1875C31.625 20.1875 31.625 19.125 29.5 19.125C27.375 19.125 27.375 20.1875 25.25 20.1875C23.125 20.1875 23.125 19.125 21 19.125C18.875 19.125 18.875 20.1875 16.75 20.1875C14.625 20.1875 14.625 19.125 12.5 19.125C10.375 19.125 10.375 20.1875 8.25 20.1875C6.125 20.1875 6.125 19.125 4 19.125V18.0625Z" fill="#202B37"/>
</g>
<defs>
<filter id="filter0_d_0_22" x="0" y="0" width="42" height="32.4375" filterUnits="userSpaceOnUse" color-interpolation-filters="sRGB">
<feFlood flood-opacity="0" result="BackgroundImageFix"/>
<feColorMatrix in="SourceAlpha" type="matrix" values="0 0 0 0 0 0 0 0 0 0 0 0 0 0 0 0 0 0 127 0" result="hardAlpha"/>
<feOffset dy="4"/>
<feGaussianBlur stdDeviation="2"/>
<feComposite in2="hardAlpha" operator="out"/>
<feColorMatrix type="matrix" values="0 0 0 0 0 0 0 0 0 0 0 0 0 0 0 0 0 0 0.25 0"/>
<feBlend mode="normal" in2="BackgroundImageFix" result="effect1_dropShadow_0_22"/>
<feBlend mode="normal" in="SourceGraphic" in2="effect1_dropShadow_0_22" result="shape"/>
</filter>
</defs>
</svg>
