<svg width="28" height="28" viewBox="0 0 28 28" fill="none" xmlns="http://www.w3.org/2000/svg">
<path d="M28 11.8393C27.9995 11.7567 27.9741 11.6762 27.9271 11.6083C27.8801 11.5404 27.8137 11.4883 27.7366 11.4587C27.6595 11.4292 27.5752 11.4236 27.4949 11.4427C27.4146 11.4618 27.3419 11.5047 27.2863 11.5659C27.1179 11.7513 26.2073 12.6727 24.7991 12.6301C24.7335 12.6301 24.6695 12.6241 24.6066 12.618V7.11375C25.5725 6.88204 26.4323 6.33217 27.0478 5.55261C27.6633 4.77305 27.9987 3.80911 28 2.81586C27.9995 2.73328 27.9741 2.65277 27.9271 2.58487C27.8801 2.51696 27.8137 2.46483 27.7366 2.43528C27.6595 2.40574 27.5752 2.40016 27.4949 2.41927C27.4146 2.43839 27.3419 2.48131 27.2863 2.54242C27.1179 2.72781 26.2073 3.64875 24.7991 3.60664C23.6879 3.57328 22.9294 2.96406 22.6116 2.65289V1.12164C22.6114 0.82463 22.4934 0.539835 22.2836 0.329612C22.0738 0.119389 21.7892 0.000867889 21.4922 0L6.49195 0C6.19471 0.00028957 5.90972 0.118497 5.69954 0.328681C5.48936 0.538864 5.37115 0.82385 5.37086 1.12109V2.65234C5.06406 2.95312 4.33617 3.54539 3.27742 3.605C1.83258 3.68703 0.888125 2.73 0.713672 2.54023C0.657938 2.4801 0.585461 2.43805 0.505596 2.41952C0.42573 2.40098 0.342142 2.4068 0.265618 2.43623C0.189094 2.46566 0.123147 2.51735 0.0762882 2.58463C0.0294294 2.65191 0.00380924 2.73169 0.00273437 2.81367C0.00404722 3.80692 0.339427 4.77086 0.954922 5.55042C1.57042 6.32999 2.43025 6.87985 3.39609 7.11156V12.6197C3.35781 12.6235 3.31953 12.6262 3.28016 12.6284C1.83531 12.7099 0.890859 11.7534 0.716406 11.5637C0.660672 11.5035 0.588196 11.4615 0.50833 11.443C0.428465 11.4244 0.344876 11.4302 0.268352 11.4597C0.191828 11.4891 0.125881 11.5408 0.0790226 11.6081C0.0321637 11.6754 0.00654361 11.7551 0.00546875 11.8371C0.0067816 12.8304 0.342161 13.7943 0.957657 14.5739C1.57315 15.3534 2.43298 15.9033 3.39883 16.135V27.1797H0.410156C0.301376 27.1797 0.197051 27.2229 0.120132 27.2998C0.0432128 27.3767 0 27.4811 0 27.5898C0 27.6986 0.0432128 27.8029 0.120132 27.8799C0.197051 27.9568 0.301376 28 0.410156 28H27.5898C27.6986 28 27.8029 27.9568 27.8799 27.8799C27.9568 27.8029 28 27.6986 28 27.5898C28 27.4811 27.9568 27.3767 27.8799 27.2998C27.8029 27.2229 27.6986 27.1797 27.5898 27.1797H24.6094V16.1372C25.5747 15.9049 26.4339 15.3549 27.0489 14.5753C27.6638 13.7958 27.9988 12.8322 28 11.8393ZM6.19117 1.12109C6.19117 1.04132 6.22286 0.964817 6.27927 0.908409C6.33568 0.852002 6.41218 0.820312 6.49195 0.820312H21.4922C21.5719 0.820457 21.6483 0.852193 21.7047 0.908569C21.7611 0.964945 21.7928 1.04137 21.793 1.12109V2.40625H6.19117V1.12109ZM0.95375 3.78875C1.65749 4.24415 2.48673 4.46648 3.32391 4.42422C4.64844 4.3493 5.54094 3.64219 5.95711 3.22656H22.0287C22.4224 3.61484 23.3751 4.3832 24.7745 4.42531C25.5773 4.448 26.3683 4.22848 27.0446 3.79531C26.8302 4.549 26.3762 5.21235 25.7512 5.685C25.1262 6.15764 24.3643 6.41384 23.5807 6.41484H4.4193C3.63456 6.41388 2.87157 6.15693 2.24612 5.68298C1.62067 5.20903 1.16692 4.54398 0.95375 3.78875ZM23.7891 7.23023V12.4255C23.3508 12.2576 22.9516 12.0017 22.616 11.6736V7.23516H23.5834C23.6496 7.23516 23.718 7.23297 23.7891 7.23023ZM21.7957 7.23516V11.4297H6.19117V7.23516H21.7957ZM5.37359 7.23516V11.6752C5.04152 12.0009 4.64696 12.2559 4.21367 12.425V7.22969C4.28203 7.22969 4.35039 7.23461 4.4193 7.23461L5.37359 7.23516ZM5.64703 25.5888C5.46879 25.6494 5.31392 25.7641 5.20402 25.917C5.09412 26.0698 5.03467 26.2532 5.03398 26.4414V27.1797H4.21367V16.2537C4.28203 16.2564 4.35039 16.2586 4.4193 16.2586H5.03398V16.9969C5.03436 17.1846 5.09317 17.3675 5.20224 17.5203C5.31131 17.6731 5.46524 17.7881 5.64266 17.8495L5.64703 25.5888ZM8.85281 27.1797H5.8543V26.4414C5.8543 26.4197 5.86294 26.3988 5.87832 26.3834C5.89371 26.368 5.91457 26.3594 5.93633 26.3594H8.77078C8.79254 26.3594 8.8134 26.368 8.82879 26.3834C8.84417 26.3988 8.85281 26.4197 8.85281 26.4414V27.1797ZM6.46297 25.5391V17.8992H8.24414V25.5391H6.46297ZM8.85281 16.9969C8.85281 17.0186 8.84417 17.0395 8.82879 17.0549C8.8134 17.0703 8.79254 17.0789 8.77078 17.0789H5.93633C5.91457 17.0789 5.89371 17.0703 5.87832 17.0549C5.86294 17.0395 5.8543 17.0186 5.8543 16.9969V16.2586H8.85281V16.9969ZM16.4495 27.1797H11.5505V19.7766C11.5505 19.6679 11.5938 19.5635 11.6707 19.4866C11.7476 19.4097 11.8519 19.3665 11.9607 19.3665H16.0393C16.1481 19.3665 16.2524 19.4097 16.3293 19.4866C16.4062 19.5635 16.4495 19.6679 16.4495 19.7766V27.1797ZM18.9355 25.5888C18.7581 25.6501 18.6041 25.7651 18.495 25.9179C18.3859 26.0707 18.3272 26.2537 18.3269 26.4414V27.1797H17.2698V19.7766C17.2695 19.4504 17.1397 19.1376 16.909 18.9069C16.6784 18.6762 16.3655 18.5465 16.0393 18.5462H11.9607C11.6345 18.5465 11.3216 18.6762 11.091 18.9069C10.8603 19.1376 10.7305 19.4504 10.7302 19.7766V27.1797H9.67313V26.4414C9.67283 26.2537 9.61406 26.0707 9.50497 25.9179C9.39589 25.7651 9.24192 25.6501 9.06445 25.5888V17.8495C9.24192 17.7882 9.39589 17.6732 9.50497 17.5204C9.61406 17.3676 9.67283 17.1846 9.67313 16.9969V16.2586H18.3269V16.9969C18.3272 17.1846 18.3859 17.3676 18.495 17.5204C18.6041 17.6732 18.7581 17.7882 18.9355 17.8495V25.5888ZM22.1484 27.1797H19.1472V26.4414C19.1472 26.4197 19.1558 26.3988 19.1712 26.3834C19.1866 26.368 19.2075 26.3594 19.2292 26.3594H22.0637C22.0854 26.3594 22.1063 26.368 22.1217 26.3834C22.1371 26.3988 22.1457 26.4197 22.1457 26.4414L22.1484 27.1797ZM19.7586 25.5391V17.8992H21.5398V25.5391H19.7586ZM22.1484 16.9969C22.1484 17.0186 22.1398 17.0395 22.1244 17.0549C22.109 17.0703 22.0882 17.0789 22.0664 17.0789H19.2292C19.2075 17.0789 19.1866 17.0703 19.1712 17.0549C19.1558 17.0395 19.1472 17.0186 19.1472 16.9969V16.2586H22.1484V16.9969ZM23.7891 27.1797H22.9688V26.4414C22.9684 26.2537 22.9096 26.0707 22.8005 25.918C22.6914 25.7652 22.5375 25.6502 22.3601 25.5888V17.8495C22.5375 17.7881 22.6914 17.6731 22.8005 17.5203C22.9096 17.3675 22.9684 17.1846 22.9688 16.9969V16.2586H23.5834C23.6523 16.2586 23.7207 16.2586 23.7891 16.2537V27.1797ZM23.5834 15.4383H4.4193C3.6347 15.4374 2.87181 15.1806 2.24639 14.7069C1.62096 14.2331 1.16712 13.5683 0.95375 12.8133C1.65762 13.2683 2.48685 13.4902 3.32391 13.4477C4.64734 13.3727 5.54094 12.6656 5.95711 12.2495H22.0287C22.601 12.8127 23.3218 13.2015 24.1068 13.3705H24.1166C24.3329 13.4143 24.5524 13.4397 24.7729 13.4466C25.5756 13.4694 26.3666 13.2501 27.043 12.8171C26.829 13.5708 26.3753 14.2344 25.7506 14.7073C25.1259 15.1802 24.3642 15.4368 23.5807 15.4383H23.5834ZM8.62148 10.623C8.7426 10.7441 8.90686 10.8122 9.07812 10.8122C9.24939 10.8122 9.41365 10.7441 9.53477 10.623L10.3688 9.78906C10.4896 9.6678 10.5574 9.5036 10.5574 9.33242C10.5574 9.16124 10.4896 8.99704 10.3688 8.87578L9.53477 8.0418C9.41365 7.92071 9.24939 7.85268 9.07812 7.85268C8.90686 7.85268 8.7426 7.92071 8.62148 8.0418L7.7875 8.87578C7.66668 8.99704 7.59883 9.16124 7.59883 9.33242C7.59883 9.5036 7.66668 9.6678 7.7875 9.78906L8.62148 10.623ZM9.07812 8.74508L9.66492 9.33242L9.07812 9.91977L8.49133 9.33242L9.07812 8.74508ZM18.4652 10.623C18.5864 10.7441 18.7506 10.8122 18.9219 10.8122C19.0931 10.8122 19.2574 10.7441 19.3785 10.623L20.2125 9.78906C20.3333 9.6678 20.4012 9.5036 20.4012 9.33242C20.4012 9.16124 20.3333 8.99704 20.2125 8.87578L19.3785 8.0418C19.2574 7.92071 19.0931 7.85268 18.9219 7.85268C18.7506 7.85268 18.5864 7.92071 18.4652 8.0418L17.6313 8.87578C17.5104 8.99704 17.4426 9.16124 17.4426 9.33242C17.4426 9.5036 17.5104 9.6678 17.6313 9.78906L18.4652 10.623ZM18.9219 8.74508L19.5087 9.33242L18.9219 9.91977L18.3351 9.33242L18.9219 8.74508ZM13.5434 10.623C13.6645 10.7441 13.8287 10.8122 14 10.8122C14.1713 10.8122 14.3355 10.7441 14.4566 10.623L15.2906 9.78906C15.4114 9.6678 15.4793 9.5036 15.4793 9.33242C15.4793 9.16124 15.4114 8.99704 15.2906 8.87578L14.4566 8.0418C14.3355 7.92071 14.1713 7.85268 14 7.85268C13.8287 7.85268 13.6645 7.92071 13.5434 8.0418L12.7094 8.87578C12.5886 8.99704 12.5207 9.16124 12.5207 9.33242C12.5207 9.5036 12.5886 9.6678 12.7094 9.78906L13.5434 10.623ZM14 8.74508L14.5868 9.33242L14 9.91977L13.4132 9.33242L14 8.74508Z" fill="black"/>
</svg>
